<svg xmlns="http://www.w3.org/2000/svg" xmlns:xlink="http://www.w3.org/1999/xlink" id="Capa_1" x="0px" y="0px" viewBox="0 0 348.6 131.5" style="enable-background:new 0 0 348.6 131.5;" xml:space="preserve"><style type="text/css">	.st0{fill:#FFFFFF;}</style><g>	<rect x="25" y="20.1" class="st0" width="22.9" height="91.4"></rect>	<polygon class="st0" points="140.9,20.1 56,20.1 56,39.7 87,39.7 87,111.5 109.8,111.5 109.8,39.7 140.9,39.7  "></polygon>	<g>		<path class="st0" d="M315.5,20l-84.8,0c-4.5,0-8.2,3.7-8.2,8.2v83.2h22.9V42.8c0-1.7,1.4-3.2,3.2-3.2h13.2v71.8h22.9V39.6h13.2   c1.7,0,3.2,1.4,3.2,3.2v68.7h22.9V28.2C323.7,23.7,320,20,315.5,20"></path>		<path class="st0" d="M204.4,20.1H149v19.6h37.6c1.7,0,3.2,1.4,3.2,3.2v9.9h-47.6c-8,0-14.4,6.5-14.4,14.4v29.9   c0,8,6.5,14.4,14.4,14.4h4.8h57.4c4.5,0,8.2-3.7,8.2-8.2V52.7V28.3C212.7,23.7,209,20.1,204.4,20.1 M184.5,91.9h-27.4   c-3.6,0-6.4-2.9-6.4-6.4v-6.7c0-3.6,2.9-6.4,6.4-6.4h32.7v14.4C189.8,89.6,187.4,91.9,184.5,91.9"></path>	</g></g></svg>